HIERARCHY
ROOT Hips
{
	OFFSET -0.001795 -0.223333 0.028219
	CHANNELS 6 Xposition Yposition Zposition Zrotation Yrotation Xrotation 
	JOINT LeftUpLeg
	{
		OFFSET 0.069520 -0.091406 -0.006815
		CHANNELS 3 Zrotation Yrotation Xrotation
		JOINT LeftLeg
		{
			OFFSET 0.034277 -0.375199 -0.004496
			CHANNELS 3 Zrotation Yrotation Xrotation
			JOINT LeftFoot
			{
				OFFSET -0.013596 -0.397961 -0.043693
				CHANNELS 3 Zrotation Yrotation Xrotation
				JOINT LeftToe
				{
					OFFSET 0.026358 -0.055791 0.119288
					CHANNELS 3 Zrotation Yrotation Xrotation
					End Site
					{
						OFFSET 0.000000 0.000000 0.000000
					}
				}
			}
		}
	}
	JOINT RightUpLeg
	{
		OFFSET -0.067670 -0.090522 -0.004320
		CHANNELS 3 Zrotation Yrotation Xrotation
		JOINT RightLeg
		{
			OFFSET -0.038290 -0.382569 -0.008850
			CHANNELS 3 Zrotation Yrotation Xrotation
			JOINT RightFoot
			{
				OFFSET 0.015774 -0.398415 -0.042312
				CHANNELS 3 Zrotation Yrotation Xrotation
				JOINT RightToe
				{
					OFFSET -0.025372 -0.048144 0.123348
					CHANNELS 3 Zrotation Yrotation Xrotation
					End Site
					{
						OFFSET 0.000000 0.000000 0.000000
					}
				}
			}
		}
	}
	JOINT Spine
	{
		OFFSET -0.002533 0.108963 -0.026696
		CHANNELS 3 Zrotation Yrotation Xrotation
		JOINT Spine1
		{
			OFFSET 0.005487 0.135180 0.001092
			CHANNELS 3 Zrotation Yrotation Xrotation
			JOINT Spine2
			{
				OFFSET 0.001457 0.052922 0.025425
				CHANNELS 3 Zrotation Yrotation Xrotation
				JOINT Neck
				{
					OFFSET -0.002778 0.213870 -0.042857
					CHANNELS 3 Zrotation Yrotation Xrotation
					JOINT Head
					{
						OFFSET 0.005152 0.064970 0.051349
						CHANNELS 3 Zrotation Yrotation Xrotation
						End Site
						{
							OFFSET 0.000000 0.000000 0.000000
						}
					}
				}
				JOINT LeftShoulder
				{
					OFFSET 0.078845 0.121749 -0.034090
					CHANNELS 3 Zrotation Yrotation Xrotation
					JOINT LeftArm
					{
						OFFSET 0.090977 0.030469 -0.008868
						CHANNELS 3 Zrotation Yrotation Xrotation
						JOINT LeftForeArm
						{
							OFFSET 0.259612 -0.012772 -0.027456
							CHANNELS 3 Zrotation Yrotation Xrotation
							JOINT LeftHand
							{
								OFFSET 0.249234 0.008986 -0.001171
								CHANNELS 3 Zrotation Yrotation Xrotation
								End Site
								{
									OFFSET 0.000000 0.000000 0.000000
								}
							}
						}
					}
				}
				JOINT RightShoulder
				{
					OFFSET -0.081759 0.118833 -0.038615
					CHANNELS 3 Zrotation Yrotation Xrotation
					JOINT RightArm
					{
						OFFSET -0.096012 0.032551 -0.009143
						CHANNELS 3 Zrotation Yrotation Xrotation
						JOINT RightForeArm
						{
							OFFSET -0.253742 -0.013329 -0.021401
							CHANNELS 3 Zrotation Yrotation Xrotation
							JOINT RightHand
							{
								OFFSET -0.255298 0.007772 -0.005559
								CHANNELS 3 Zrotation Yrotation Xrotation
								End Site
								{
									OFFSET 0.000000 0.000000 0.000000
								}
							}
						}
					}
				}
			}
		}
	}
}
MOTION
Frames: 10
Frame Time: 0.050000
0.008809 0.938433 -0.379162 -1.094434 1.458197 -0.877805 1.108891 -0.451699 -5.385790 -7.129708 0.906311 5.548447 4.022040 3.755766 -12.167286 0.000000 0.000000 0.000000 0.957972 1.275127 -11.973905 -1.504946 2.154895 39.624009 -2.931303 -7.238142 -0.540123 0.000000 0.000000 0.000000 1.491449 -0.396160 7.102959 0.730988 -0.342933 -0.222909 -6.541924 3.394241 10.000099 11.587650 -3.349927 -27.287022 0.000000 0.000000 0.000000 -20.626386 -8.892012 1.548858 -49.653563 -2.218394 -5.101155 -107.525821 -74.734708 94.993786 0.000000 0.000000 0.000000 21.432907 -3.539195 -2.408365 65.324199 -3.028861 -8.669094 126.595037 64.016397 111.234340 0.000000 0.000000 0.000000 
-0.002091 0.935505 -0.408274 -0.535372 1.092227 -0.403475 0.515054 -0.623658 -7.102777 -5.981074 0.714844 4.241045 3.863992 4.365753 -10.170773 0.000000 0.000000 0.000000 0.472484 0.796475 -7.733851 -2.255828 2.572751 39.304474 -2.765384 -8.651073 5.680326 0.000000 0.000000 0.000000 1.247226 -0.296119 5.529960 0.627348 -0.283906 -0.470787 -7.037990 3.977758 9.904567 12.115488 -3.615673 -26.977910 0.000000 0.000000 0.000000 -19.916584 -8.572506 1.292242 -50.450525 -1.387819 -5.514617 -107.074377 -72.835270 92.243492 0.000000 0.000000 0.000000 21.793101 -4.998800 -3.163996 66.394477 -3.516378 -9.038549 123.201900 62.326493 105.391298 0.000000 0.000000 0.000000 
-0.014326 0.931369 -0.439961 0.343272 0.423426 0.175040 0.334926 -0.838590 -9.405547 -5.881602 0.698725 3.426941 3.808510 5.274112 -8.015802 0.000000 0.000000 0.000000 -0.655129 0.395152 -4.030197 -3.339277 3.050370 37.141401 -1.214044 -7.409798 12.528684 0.000000 0.000000 0.000000 0.430999 -0.224013 4.956804 0.878676 -0.369206 -1.385910 -7.276680 4.424089 9.820306 11.375287 -3.235672 -26.855839 0.000000 0.000000 0.000000 -19.697696 -8.356007 1.169627 -51.066613 -1.505519 -5.546199 -110.166918 -70.887918 93.430664 0.000000 0.000000 0.000000 20.991845 -4.994365 -3.082021 67.814718 -3.722285 -9.263861 122.737445 61.380657 103.807249 0.000000 0.000000 0.000000 
-0.027534 0.925938 -0.474424 0.562118 0.785791 1.025652 0.722119 -1.124765 -12.980108 -5.367977 0.625621 3.861413 3.542681 5.379239 -6.006099 0.000000 0.000000 0.000000 -0.195570 0.079306 -0.753569 -4.077366 3.052622 33.824635 0.748447 -4.052121 13.684368 0.000000 0.000000 0.000000 1.023413 -0.189207 3.581019 0.864760 -0.412311 -0.057207 -8.108385 4.227663 7.696925 11.025785 -3.023778 -26.347568 0.000000 0.000000 0.000000 -18.539919 -8.776074 1.339994 -52.947846 -1.796988 -5.480517 -111.114057 -69.067384 92.058697 0.000000 0.000000 0.000000 20.456991 -5.134764 -3.126931 69.021671 -4.030346 -9.290900 123.644835 60.994623 104.226289 0.000000 0.000000 0.000000 
-0.042034 0.920413 -0.511468 1.522824 1.220321 1.231083 0.591471 -1.365041 -15.439639 -5.236458 0.594007 3.246331 3.065772 5.330301 -3.179838 0.000000 0.000000 0.000000 0.239797 -0.229013 2.164745 -5.308028 2.984529 27.854494 0.663600 -2.757070 9.749891 0.000000 0.000000 0.000000 1.034310 -0.211842 4.024894 0.679767 -0.302990 -0.590262 -8.378387 3.690712 7.585842 10.307914 -2.499715 -27.407677 0.000000 0.000000 0.000000 -18.260721 -9.248222 1.682517 -54.079605 -4.075352 -4.629280 -111.733293 -69.803410 93.683629 0.000000 0.000000 0.000000 19.445886 -4.321948 -2.665550 70.574888 -2.492530 -8.491949 123.725835 62.072965 105.429537 0.000000 0.000000 0.000000 
-0.057804 0.915257 -0.550794 1.178575 0.843384 1.100039 1.360541 -1.410680 -17.188097 -3.823738 0.409803 1.846394 2.663787 5.690623 0.179738 0.000000 0.000000 0.000000 2.373960 -0.559237 4.103589 -7.487215 3.105796 21.496984 -0.437017 -3.036944 4.328041 0.000000 0.000000 0.000000 2.564316 -0.311972 4.469619 0.280443 -0.145599 0.330706 -9.003134 4.468723 6.632654 10.382905 -2.381646 -27.567983 0.000000 0.000000 0.000000 -17.351685 -9.723204 1.761125 -55.310057 -5.945382 -3.807434 -115.022432 -70.901916 97.869836 0.000000 0.000000 0.000000 20.528152 -4.674753 -2.768541 69.850362 -1.215359 -7.561806 122.685503 62.600719 105.097618 0.000000 0.000000 0.000000 
-0.073671 0.912304 -0.590302 0.568107 0.841257 1.071956 2.547984 -1.317808 -18.137366 -2.711405 0.304307 -1.196531 1.841732 5.565029 4.617389 0.000000 0.000000 0.000000 4.005077 -0.771040 4.911184 -8.603015 2.839182 16.427411 -0.474023 0.002471 -2.389822 0.000000 0.000000 0.000000 3.858920 -0.473946 5.731856 -0.037012 0.016236 0.039036 -8.612418 5.150900 6.970356 9.549344 -1.655756 -29.119496 0.000000 0.000000 0.000000 -18.273634 -9.887596 1.624481 -54.489483 -7.519645 -2.989366 -116.852632 -70.896109 99.663635 0.000000 0.000000 0.000000 19.684160 -3.955659 -2.152820 69.270958 0.729008 -6.308412 120.496930 65.083690 105.659948 0.000000 0.000000 0.000000 
-0.088335 0.912466 -0.627678 -0.380885 0.653443 2.200732 4.387191 -1.128534 -19.441147 -2.090011 0.308880 -5.407961 0.917037 5.685355 10.231978 0.000000 0.000000 0.000000 6.106977 -0.600458 2.762241 -9.001532 2.645957 14.022573 -0.888839 0.580711 -5.484922 0.000000 0.000000 0.000000 5.111615 -0.548938 5.440784 0.256556 -0.161032 1.165061 -9.058813 5.259185 4.972929 9.681874 -1.626313 -29.129685 0.000000 0.000000 0.000000 -18.913709 -8.520638 0.711227 -54.373008 -6.878913 -3.025898 -119.800381 -69.144894 100.710910 0.000000 0.000000 0.000000 20.275021 -2.820141 -1.529126 66.583237 2.237915 -5.128213 114.448076 67.379970 100.694954 0.000000 0.000000 0.000000 
-0.100975 0.914429 -0.661024 -1.013463 1.858696 2.345490 5.681932 -1.020776 -20.258670 -2.159343 0.343575 -8.258617 -0.190392 5.435027 14.736930 0.000000 0.000000 0.000000 7.532964 -0.383544 1.049443 -8.298499 2.359060 13.127510 -1.249335 -0.168624 -6.317142 0.000000 0.000000 0.000000 5.901127 -0.610929 5.456982 1.083878 -0.549509 0.676881 -9.571240 6.345140 5.742794 10.518558 -1.605386 -30.496746 0.000000 0.000000 0.000000 -18.798201 -10.069249 1.061060 -53.999183 -6.939255 -2.923094 -120.918959 -69.415514 101.337354 0.000000 0.000000 0.000000 20.203289 -4.151876 -1.831279 65.257434 3.693118 -4.258144 108.601791 69.349408 97.453787 0.000000 0.000000 0.000000 
-0.110866 0.918401 -0.689933 -1.474250 1.693205 2.238749 6.452236 -0.903789 -20.542134 -1.414708 0.362117 -10.449317 0.839233 8.840356 22.020862 0.000000 0.000000 0.000000 8.536398 -0.264632 0.165845 -8.246952 2.159356 11.412713 -0.976576 0.363897 -5.769040 0.000000 0.000000 0.000000 6.667700 -0.715951 6.007628 0.684818 -0.320063 -0.192864 -8.364130 5.605310 6.227242 10.869464 -2.009676 -29.930264 0.000000 0.000000 0.000000 -18.457530 -8.629022 0.674131 -54.882948 -6.387898 -3.395177 -121.047838 -69.020154 101.775743 0.000000 0.000000 0.000000 18.475252 -2.897495 -1.332098 64.221763 4.348257 -3.851262 98.675251 70.511397 87.406791 0.000000 0.000000 0.000000 
